<svg xmlns="http://www.w3.org/2000/svg" viewBox="0 0 153.31 109.9"><defs><style>.cls-1{fill:none;}.cls-2{fill:#0092d1;opacity:0.06;}.cls-3,.cls-4{fill:#fff;}.cls-3{opacity:0.56;}.cls-4{opacity:0.47;}.cls-5{fill:#192f3e;}.cls-6{fill:#2d2d2d;}.cls-7{fill:#d8d8d8;}.cls-8{fill:#fae653;}.cls-9{fill:#f1c271;}.cls-10{fill:#64350d;}.cls-11{fill:#26445a;}</style></defs><g id="Capa_2" data-name="Capa 2"><g id="Interior_del_auto" data-name="Interior del auto"><polygon class="cls-1" points="23.01 63.4 0 1.6 23.01 63.4 23.01 63.4"/><polygon class="cls-2" points="124.14 67.93 144.88 12.95 149.45 0.49 135.06 0.49 102.74 67.93 124.14 67.93"/><polygon class="cls-2" points="85.63 67.93 108.03 0.49 43.02 0.49 57.53 67.93 85.63 67.93"/><polygon class="cls-2" points="85.63 67.93 87.58 67.93 87.63 67.81 85.63 67.93"/><path class="cls-2" d="M36.28,57.3c.33,0,.65,0,1,.05L11.57.86l6.11,0L36.41,1,51.33,65.87a18.23,18.23,0,0,1,1.07,2.06h2.4L38.45.49H3.72l22.37,60.1A17.41,17.41,0,0,1,36.28,57.3Z"/><path class="cls-2" d="M20.16,67.93A17.59,17.59,0,0,1,23,63.4L0,1.6,9.22,68.46A3.43,3.43,0,0,1,11,67.93Z"/><path class="cls-2" d="M17.68.9l7.93,0,16.87,57.5a17.58,17.58,0,0,1,8.85,7.42L36.41,1Z"/><path class="cls-3" d="M17.68.9l7.93,0,16.87,57.5a17.58,17.58,0,0,1,8.85,7.42L36.41,1Z"/><path class="cls-2" d="M17.68.9l-6.11,0L37.25,57.35c.44,0,.88.06,1.31.11L17.68.9Z"/><path class="cls-2" d="M17.68.9l-6.11,0L37.25,57.35c.44,0,.88.06,1.31.11L17.68.9Z"/><path class="cls-2" d="M17.68.9h0L38.56,57.46a17.74,17.74,0,0,1,3.92,1L25.61,1Z"/><path class="cls-3" d="M17.68.9h0L38.56,57.46a17.74,17.74,0,0,1,3.92,1L25.61,1Z"/><path class="cls-2" d="M17.68.9h0L38.56,57.46a17.74,17.74,0,0,1,3.92,1L25.61,1Z"/><polygon class="cls-2" points="57.53 67.93 43.02 0.49 38.45 0.49 54.8 67.93 57.53 67.93"/><polygon class="cls-3" points="57.53 67.93 43.02 0.49 38.45 0.49 54.8 67.93 57.53 67.93"/><polygon class="cls-2" points="95.4 67.93 102.74 67.93 135.06 0.49 133.66 0.49 127.67 0.6 95.4 67.93"/><polygon class="cls-4" points="95.4 67.93 102.74 67.93 135.06 0.49 133.66 0.49 127.67 0.6 95.4 67.93"/><polygon class="cls-2" points="127.72 0.49 127.95 0 112.75 0.26 112.67 0.49 115.81 0.49 127.72 0.49"/><polygon class="cls-2" points="89.29 67.7 87.63 67.81 87.58 67.93 94.87 67.93 119.87 0.73 127.67 0.6 127.72 0.49 115.81 0.49 89.29 67.7"/><polygon class="cls-2" points="89.29 67.7 87.63 67.81 87.58 67.93 94.87 67.93 119.87 0.73 127.67 0.6 127.72 0.49 115.81 0.49 89.29 67.7"/><polygon class="cls-2" points="119.87 0.73 94.87 67.93 95.4 67.93 127.67 0.6 119.87 0.73"/><polygon class="cls-4" points="119.87 0.73 94.87 67.93 95.4 67.93 127.67 0.6 119.87 0.73"/><polygon class="cls-2" points="119.87 0.73 94.87 67.93 95.4 67.93 127.67 0.6 119.87 0.73"/><polygon class="cls-2" points="87.63 67.81 112.67 0.49 108.03 0.49 85.63 67.93 87.63 67.81"/><polygon class="cls-4" points="87.63 67.81 112.67 0.49 108.03 0.49 85.63 67.93 87.63 67.81"/><polygon class="cls-2" points="89.29 67.7 115.81 0.49 112.67 0.49 87.63 67.81 89.29 67.7"/><polygon class="cls-2" points="89.29 67.7 115.81 0.49 112.67 0.49 87.63 67.81 89.29 67.7"/><polygon class="cls-4" points="89.29 67.7 115.81 0.49 112.67 0.49 87.63 67.81 89.29 67.7"/><path class="cls-5" d="M128.21,67.93h0l25-66.18.14-.38-.07,0-.08,0-3.5-1L144.87,13l-20.73,55H52.4a18.23,18.23,0,0,0-1.07-2.06,17.56,17.56,0,0,0-12.77-8.41c-.43-.05-.87-.09-1.31-.11s-.64-.05-1-.05a17.41,17.41,0,0,0-10.19,3.29L3.72.49,0,1.6,23,63.4h0a17.59,17.59,0,0,0-2.85,4.53H11a3.47,3.47,0,0,0-3.45,3.45v35.07A3.46,3.46,0,0,0,11,109.9H139.52a3.45,3.45,0,0,0,3.45-3.45V71.38a3.5,3.5,0,0,0-3.45-3.45ZM36.28,59.08A15.76,15.76,0,1,1,20.53,74.83,15.75,15.75,0,0,1,36.28,59.08Zm53.6,23.53h0l-3.24,23.63H72L68.73,82.61h0l-1-7.25a1.88,1.88,0,0,1-.07-.53,2.15,2.15,0,0,1,2.15-2.15h19A2.16,2.16,0,0,1,91,74.83a1.89,1.89,0,0,1-.08.53Zm48.35-1.74v11.4a8,8,0,0,1-8,8H107.35a8,8,0,0,1-8-8V75.91h38.91Z"/><path class="cls-5" d="M34.66,67.93a4.53,4.53,0,1,1-9,0c0-.06,0-.12,0-.19a12.73,12.73,0,0,0-2.12,6.17L34,74.35a2.33,2.33,0,0,1,2-1.83l-.44-10.47h0a12.86,12.86,0,0,0-5,1.39A4.5,4.5,0,0,1,34.66,67.93Z"/><path class="cls-5" d="M36.7,77.13l.43,10.48h0A12.78,12.78,0,0,0,49,75.91v0l-10.52-.4A2.33,2.33,0,0,1,36.7,77.13Z"/><path class="cls-5" d="M34,75.27l-10.47.48A12.8,12.8,0,0,0,35.34,87.6h0l.4-10.48A2.36,2.36,0,0,1,34,75.27Z"/><path class="cls-5" d="M36.9,72.58a2.33,2.33,0,0,1,1.69,2l10.47-.44v0a12.82,12.82,0,0,0-2.13-6.34c0,.07,0,.13,0,.2a4.53,4.53,0,1,1-4.85-4.49,12.55,12.55,0,0,0-4.76-1.37h0Z"/><polygon class="cls-6" points="71.98 106.24 86.64 106.24 89.88 82.61 68.73 82.61 71.98 106.24"/><path class="cls-7" d="M88.79,77h-19a2.15,2.15,0,0,1-2.08-1.63l1,7.25H89.88l1-7.25A2.15,2.15,0,0,1,88.79,77Z"/><path class="cls-8" d="M88.79,72.68h-19a2.15,2.15,0,0,0-2.15,2.15,1.88,1.88,0,0,0,.07.53A2.15,2.15,0,0,0,69.82,77h19a2.15,2.15,0,0,0,2.08-1.63,1.89,1.89,0,0,0,.08-.53A2.16,2.16,0,0,0,88.79,72.68Z"/><path class="cls-9" d="M30.14,72.46a4.52,4.52,0,0,0,.33-9,12.78,12.78,0,0,0-4.84,4.3c0,.07,0,.13,0,.19A4.53,4.53,0,0,0,30.14,72.46Z"/><path class="cls-9" d="M37.9,67.93a4.53,4.53,0,1,0,9.05,0c0-.07,0-.13,0-.2a12.81,12.81,0,0,0-4.83-4.29A4.5,4.5,0,0,0,37.9,67.93Z"/><path class="cls-10" d="M35.78,77.12l0-1.42a1,1,0,0,1-.46-.49L34,75.27A2.36,2.36,0,0,0,35.78,77.12Z"/><path class="cls-10" d="M38.52,75.47l-1.46-.06a1,1,0,0,1-.42.34l.06,1.38A2.33,2.33,0,0,0,38.52,75.47Z"/><path class="cls-10" d="M36.9,72.58,36.84,74a1,1,0,0,1,.38.56l1.37,0A2.33,2.33,0,0,0,36.9,72.58Z"/><path class="cls-10" d="M36,73.9,36,72.52a2.33,2.33,0,0,0-2,1.83l1.41.06A1,1,0,0,1,36,73.9Z"/><path class="cls-7" d="M36,72.52,36,73.9a1,1,0,0,0-.63.51L34,74.35l-10.48-.44c0,.3-.05.61-.05.92s0,.62.05.92L34,75.27l1.39-.06a1,1,0,0,0,.46.49l0,1.42-.4,10.48c.3,0,.6.05.9.05s.57,0,.85,0L36.7,77.13l-.06-1.38a1,1,0,0,0,.42-.34l1.46.06,10.52.4c0-.34.06-.69.06-1s0-.48,0-.72l-10.47.44-1.37,0a1,1,0,0,0-.38-.56l.06-1.46.41-10.51c-.34,0-.68-.06-1-.06s-.5,0-.75,0Z"/><path class="cls-10" d="M20.53,74.83A15.75,15.75,0,1,0,36.28,59.08,15.76,15.76,0,0,0,20.53,74.83Zm15-12.78c.25,0,.5,0,.75,0s.69,0,1,.06h0a12.55,12.55,0,0,1,4.76,1.37,12.78,12.78,0,0,1,7,10.63v0c0,.24,0,.48,0,.72s0,.7-.06,1v0A12.78,12.78,0,0,1,37.18,87.6h0c-.28,0-.56,0-.85,0s-.6,0-.9-.05h0A12.8,12.8,0,0,1,23.51,75.75c0-.3-.05-.61-.05-.92s0-.62.05-.92a12.87,12.87,0,0,1,12-11.86Z"/><path class="cls-11" d="M99.32,92.27a8,8,0,0,0,8,8H130.2a8,8,0,0,0,8-8V80.87H99.32Z"/><rect class="cls-7" x="99.32" y="75.91" width="38.91" height="4.96"/></g></g></svg>